<svg width="22" height="22" viewBox="0 0 22 22" fill="none" xmlns="http://www.w3.org/2000/svg">
<path fill-rule="evenodd" clip-rule="evenodd" d="M16.4999 0C17.3283 0 17.9999 0.671572 17.9999 1.5V3H20.4999C21.3283 3 21.9999 3.67157 21.9999 4.5V20.5V21.5871L21.1745 20.8796L17.8149 18H4.4999C3.67147 18 2.9999 17.3284 2.9999 16.5V14H1.49951C0.671085 14 -0.000488281 13.3284 -0.000488281 12.5V1.5C-0.000488281 0.671572 0.671087 0 1.49951 0H16.4999ZM2.9999 13V4.5C2.9999 3.67157 3.67147 3 4.4999 3H16.9999V1.5C16.9999 1.22386 16.776 1 16.4999 1H1.49951C1.22337 1 0.999512 1.22386 0.999512 1.5V12.5C0.999512 12.7761 1.22337 13 1.49951 13H2.9999ZM20.4999 4C20.776 4 20.9999 4.22386 20.9999 4.5V19.4129L18.3253 17.1204L18.1849 17H17.9999H4.4999C4.22376 17 3.9999 16.7761 3.9999 16.5V4.5C3.9999 4.22386 4.22376 4 4.4999 4H20.4999ZM6.9999 9H17.9999V8H6.9999V9ZM6.9999 13H12.9999V12H6.9999V13Z" fill="#001F2C"/>
</svg>
