<svg width="17" height="16" viewBox="0 0 17 16" fill="none" xmlns="http://www.w3.org/2000/svg">
<path d="M15.9971 8.00826C15.9971 8.72098 16.0031 9.4283 15.9971 10.141C15.9911 10.628 15.9682 11.115 15.937 11.5959C15.9079 12.2108 15.7685 12.8154 15.5256 13.381C15.3067 13.895 14.9843 14.3584 14.5783 14.7423C14.1724 15.1262 13.6917 15.4223 13.1661 15.6123C12.7807 15.7537 12.3799 15.8491 11.972 15.8963C11.6416 15.9371 11.3053 15.9563 10.9689 15.9659C9.52728 16.0182 8.07545 15.9948 6.63205 15.9948C6.17974 15.9948 5.72746 15.9833 5.27515 15.9713C4.92737 15.9599 4.57357 15.9425 4.22578 15.9113C3.62318 15.8634 3.03362 15.7104 2.48383 15.4592C2.09153 15.2797 1.73278 15.0346 1.42305 14.7344C1.06539 14.397 0.772103 13.9975 0.557501 13.5552C0.363212 13.1387 0.224862 12.6983 0.146045 12.2456C0.0772754 11.8142 0.0405443 11.3783 0.0361325 10.9414C-0.0161256 9.24337 0.00129287 7.53932 0.0127056 5.83766C0.0187122 5.40294 0.0361108 4.96222 0.0589362 4.5281C0.0829035 3.9605 0.192468 3.39977 0.383907 2.86487C0.695037 1.98793 1.29647 1.24352 2.08861 0.754914C2.44782 0.536692 2.83635 0.370891 3.24247 0.262547C3.54429 0.178365 3.85278 0.120114 4.16452 0.0884224C4.83727 0.0247754 5.51543 0.00735671 6.18818 0.00735671C7.35948 0.00135229 8.53616 0.00135229 9.70746 0.00735671C10.2583 0.0133611 10.8031 0.0307807 11.3539 0.0535975C11.9067 0.0712761 12.4545 0.162957 12.9829 0.326195C13.5008 0.487254 13.9816 0.749287 14.3975 1.09716C15.0019 1.59997 15.447 2.26751 15.6787 3.01858C15.7965 3.38996 15.8769 3.77212 15.919 4.15942C15.979 4.73345 15.9941 5.30687 16.0001 5.88629C16.0061 6.59902 16.0001 7.30634 16.0001 8.00766L15.9971 8.00826ZM8.01361 1.45923C6.99248 1.45322 5.97853 1.44182 4.964 1.48805C4.5702 1.49486 4.17795 1.5395 3.79269 1.62135C3.45675 1.68946 3.13508 1.81499 2.84183 1.99242C2.3101 2.32249 1.91176 2.82933 1.71679 3.42388C1.59081 3.80819 1.51865 4.20807 1.50235 4.61216C1.47892 5.0817 1.45608 5.55125 1.45608 6.01479C1.45048 7.26651 1.44851 8.51844 1.45011 9.77056C1.45011 10.3794 1.4675 10.9877 1.51375 11.5905C1.5414 11.9792 1.62539 12.3619 1.76305 12.7265C1.996 13.348 2.4587 13.8563 3.05568 14.1466C3.45453 14.3419 3.88818 14.4562 4.33151 14.4828C4.65647 14.5117 4.98683 14.5291 5.31119 14.5429C5.90285 14.5543 6.49389 14.5663 7.08555 14.5663C7.91447 14.5723 8.7494 14.5663 9.57893 14.5603C10.2457 14.5603 10.9124 14.5489 11.5792 14.4906C11.9536 14.466 12.3225 14.388 12.6748 14.2589C13.0223 14.1332 13.3395 13.9355 13.6053 13.6788C13.8711 13.4221 14.0797 13.1121 14.2173 12.7692C14.3898 12.335 14.4859 11.8743 14.5014 11.4074C14.5248 10.909 14.5477 10.4046 14.5477 9.90626C14.5537 8.69517 14.5537 7.48948 14.5477 6.27838C14.5477 5.66413 14.5302 5.04388 14.484 4.42962C14.4578 4.04495 14.3758 3.66612 14.2407 3.30499C14.1181 2.97052 13.9276 2.66502 13.6812 2.40772C13.4347 2.15041 13.1377 1.94687 12.8087 1.80989C12.3636 1.62402 11.8878 1.52222 11.4056 1.50966C10.9647 1.48625 10.5298 1.46884 10.0895 1.46343C9.39935 1.45323 8.70318 1.45923 8.01361 1.45923Z" fill="#CBD1D4"/>
<path d="M8.00757 3.90526C8.82005 3.90586 9.61411 4.14728 10.2893 4.59899C10.9646 5.05071 11.4906 5.69244 11.801 6.44302C12.1113 7.1936 12.1921 8.01931 12.033 8.81576C11.8739 9.61222 11.4822 10.3436 10.9072 10.9175C10.3323 11.4914 9.60004 11.8819 8.80306 12.0398C8.00607 12.1977 7.18015 12.1158 6.42975 11.8044C5.67934 11.493 5.03813 10.9662 4.58723 10.2906C4.13634 9.61498 3.896 8.82087 3.8966 8.0087C3.89675 7.46937 4.00326 6.93536 4.20998 6.43719C4.41671 5.93902 4.71959 5.48645 5.10138 5.10536C5.48317 4.72428 5.93633 4.42214 6.43499 4.21622C6.93365 4.0103 7.46803 3.90463 8.00757 3.90526ZM8.00155 5.34273C7.47408 5.34273 6.95844 5.49908 6.51986 5.79202C6.08128 6.08496 5.73948 6.50133 5.53762 6.98847C5.33576 7.47561 5.28293 8.01166 5.38584 8.52881C5.48874 9.04596 5.74276 9.52098 6.11574 9.89382C6.48872 10.2667 6.96391 10.5206 7.48125 10.6234C7.99859 10.7263 8.53486 10.6735 9.02218 10.4717C9.50951 10.2699 9.926 9.92825 10.219 9.48983C10.5121 9.05142 10.6685 8.53598 10.6685 8.0087C10.6686 7.65863 10.5997 7.31197 10.4657 6.98853C10.3318 6.66508 10.1354 6.37118 9.88777 6.12361C9.64017 5.87605 9.3462 5.67966 9.02266 5.54567C8.69912 5.41169 8.35176 5.34273 8.00155 5.34273Z" fill="#CBD1D4"/>
<path d="M13.2316 3.74196C13.2318 3.86799 13.2071 3.99281 13.1589 4.10924C13.1106 4.22567 13.0397 4.33141 12.9504 4.42033C12.861 4.50925 12.755 4.57962 12.6383 4.62736C12.5216 4.67509 12.3966 4.69925 12.2705 4.69845C12.0168 4.69593 11.7743 4.59379 11.5952 4.41404C11.4162 4.2343 11.3151 3.99139 11.3137 3.73776C11.3068 3.60726 11.3266 3.47674 11.3719 3.35416C11.4172 3.23159 11.4871 3.11954 11.5772 3.02488C11.6673 2.93022 11.7758 2.85491 11.896 2.8036C12.0162 2.75229 12.1457 2.72605 12.2764 2.72645C12.4071 2.72686 12.5364 2.75392 12.6563 2.80598C12.7762 2.85804 12.8842 2.93402 12.9738 3.02924C13.0633 3.12447 13.1324 3.23695 13.1769 3.35981C13.2215 3.48266 13.2405 3.6133 13.2328 3.74375L13.2316 3.74196Z" fill="#CBD1D4"/>
</svg>
