<svg width="14" height="23" viewBox="0 0 14 23" fill="none" xmlns="http://www.w3.org/2000/svg">
<path fill-rule="evenodd" clip-rule="evenodd" d="M13 5C13 7.20914 11.2091 9 9 9C6.79086 9 5 7.20914 5 5C5 2.79086 6.79086 1 9 1C11.2091 1 13 2.79086 13 5ZM9.5 9.97531C12.0267 9.72445 14 7.59267 14 5C14 2.23858 11.7614 0 9 0C6.23858 0 4 2.23858 4 5C4 7.59267 5.97334 9.72445 8.5 9.97531V18C8.5 19.933 6.933 21.5 5 21.5C3.067 21.5 1.5 19.933 1.5 18V16.7603L3.01815 18.1289L3.68773 17.3862L1.33479 15.265L0.5 14.5124V15.6364V18C0.5 20.4853 2.51472 22.5 5 22.5C7.48528 22.5 9.5 20.4853 9.5 18V9.97531Z" fill="#828C90"/>
</svg>
