<svg width="20" height="20" viewBox="0 0 20 20" fill="none" xmlns="http://www.w3.org/2000/svg">
<path fill-rule="evenodd" clip-rule="evenodd" d="M15.167 1.35015C14.5839 0.765907 13.6391 0.763519 13.0531 1.34481L0.444291 13.8505C0.15997 14.1325 0 14.5166 0 14.9175L5.18503e-06 18.499C5.35346e-06 19.3282 0.670944 20.0004 1.49859 20.0004H5.60011C5.98473 20.0004 6.35464 19.8522 6.63325 19.5865L19.2189 7.58554C19.8289 7.00386 19.8409 6.03292 19.2454 5.4363L15.167 1.35015ZM13.7559 2.05615C13.9513 1.86238 14.2662 1.86318 14.4606 2.05793L18.539 6.14408C18.7375 6.34295 18.7335 6.66659 18.5302 6.86049L15.4778 9.77106L10.7471 5.04036L13.7559 2.05615ZM10.0371 5.74456L1.14715 14.5618C1.05238 14.6558 0.999055 14.7839 0.999054 14.9175L0.99906 18.499C0.99906 18.7754 1.22271 18.9994 1.49859 18.9994L5.60011 18.9994C5.72831 18.9994 5.85162 18.95 5.94449 18.8615L14.7539 10.4613L10.0371 5.74456Z" fill="black"/>
</svg>
