<svg width="19" height="21" viewBox="0 0 19 21" fill="none" xmlns="http://www.w3.org/2000/svg">
<path fill-rule="evenodd" clip-rule="evenodd" d="M12.1465 3.71791C12.1465 1.9416 13.584 0.5 15.3593 0.5C17.1345 0.5 18.572 1.9416 18.572 3.71791C18.572 5.49423 17.1345 6.93583 15.3593 6.93583C14.4409 6.93583 13.6128 6.55 13.0275 5.93161L6.63757 10.2285C6.7539 10.5614 6.81715 10.9192 6.81715 11.2918C6.81715 11.6524 6.7579 11.9992 6.64862 12.3229L12.7322 15.691C13.3136 14.8654 14.2732 14.3259 15.3593 14.3259C17.1345 14.3259 18.572 15.7675 18.572 17.5438C18.572 19.3202 17.1345 20.7618 15.3593 20.7618C13.584 20.7618 12.1465 19.3202 12.1465 17.5438C12.1465 17.2115 12.1968 16.891 12.2902 16.5893L6.18475 13.2091C5.5994 13.9981 4.6618 14.5096 3.60437 14.5096C1.82914 14.5096 0.391602 13.068 0.391602 11.2918C0.391602 9.51551 1.82914 8.07397 3.60437 8.07397C4.64792 8.07397 5.57477 8.57209 6.16152 9.34351L12.4608 5.10765C12.2593 4.68689 12.1465 4.21554 12.1465 3.71791ZM15.3593 1.5C14.1381 1.5 13.1465 2.4921 13.1465 3.71791C13.1465 4.94373 14.1381 5.93583 15.3593 5.93583C16.5804 5.93583 17.572 4.94373 17.572 3.71791C17.572 2.4921 16.5804 1.5 15.3593 1.5ZM3.60437 9.07397C2.38317 9.07397 1.3916 10.066 1.3916 11.2918C1.3916 12.5175 2.38317 13.5096 3.60437 13.5096C4.82558 13.5096 5.81715 12.5175 5.81715 11.2918C5.81715 10.066 4.82558 9.07397 3.60437 9.07397ZM13.1465 17.5438C13.1465 16.318 14.1381 15.3259 15.3593 15.3259C16.5804 15.3259 17.572 16.318 17.572 17.5438C17.572 18.7697 16.5804 19.7618 15.3593 19.7618C14.1381 19.7618 13.1465 18.7697 13.1465 17.5438Z" fill="#001F2C"/>
</svg>
