<svg width="22" height="22" viewBox="0 0 22 22" fill="none" xmlns="http://www.w3.org/2000/svg">
<path fill-rule="evenodd" clip-rule="evenodd" d="M21 11C21 16.5228 16.5228 21 11 21C5.47715 21 1 16.5228 1 11C1 5.47715 5.47715 1 11 1C16.5228 1 21 5.47715 21 11ZM22 11C22 17.0751 17.0751 22 11 22C4.92487 22 0 17.0751 0 11C0 4.92487 4.92487 0 11 0C17.0751 0 22 4.92487 22 11ZM15.5982 7.35388L11.7534 11.2059L15.5982 15.058L14.8918 15.7657L11.0469 11.9137L7.20283 15.765L6.49639 15.0572L10.3405 11.2059L6.49639 7.35462L7.20283 6.64685L11.0469 10.4982L14.8918 6.64612L15.5982 7.35388Z" fill="#001F2C"/>
</svg>
