<svg width="24" height="24" viewBox="0 0 24 24" fill="none" xmlns="http://www.w3.org/2000/svg">
<path d="M13 16.5C13 17.0523 12.5523 17.5 12 17.5C11.4477 17.5 11 17.0523 11 16.5C11 15.9477 11.4477 15.5 12 15.5C12.5523 15.5 13 15.9477 13 16.5Z" fill="#001F2C"/>
<path d="M9.94716 8.22361C10.3458 7.42627 11.149 7 12.1254 7C13.5248 7 14.4999 7.85661 14.4999 8.97634C14.4999 9.85432 14.1794 10.4717 13.7292 10.8743C13.2698 11.285 12.6433 11.5 11.9999 11.5H11.4999V14.0473H12.4999V12.4675C13.1884 12.3774 13.8595 12.0992 14.3957 11.6198C15.0705 11.0165 15.4999 10.122 15.4999 8.97634C15.4999 7.14339 13.9011 6 12.1254 6C10.8509 6 9.65407 6.57373 9.05273 7.77639L9.94716 8.22361Z" fill="#001F2C"/>
<path fill-rule="evenodd" clip-rule="evenodd" d="M0 12C0 5.37258 5.37258 0 12 0C18.6274 0 24 5.37258 24 12C24 18.6274 18.6274 24 12 24C5.37258 24 0 18.6274 0 12ZM12 1C5.92487 1 1 5.92487 1 12C1 18.0751 5.92487 23 12 23C18.0751 23 23 18.0751 23 12C23 5.92487 18.0751 1 12 1Z" fill="#001F2C"/>
</svg>
