<svg width="23" height="22" viewBox="0 0 23 22" fill="none" xmlns="http://www.w3.org/2000/svg">
<path fill-rule="evenodd" clip-rule="evenodd" d="M10.9767 1.98188C10.7342 1.83014 10.414 1.91248 10.2747 2.16241L5 11.6299L5 21H17.6319C18.305 21 18.8956 20.5516 19.0766 19.9033L21.31 11.9033C21.5769 10.9471 20.858 10 19.8652 10H11.9621L12.3696 4.42453C12.4371 3.50025 11.9878 2.61445 11.2022 2.12292L10.9767 1.98188ZM1.5 22C0.67157 22 0 21.3284 0 20.5V12.5C0 11.6716 0.671573 11 1.5 11H4.20621L9.40117 1.67571C9.81891 0.925917 10.7795 0.678892 11.5071 1.13412L11.7325 1.27516C12.8325 1.96329 13.4615 3.20343 13.3669 4.49742L13.0379 9.00001H19.8652C21.5198 9.00001 22.718 10.5785 22.2731 12.1722L20.0398 20.1722C19.7381 21.2527 18.7537 22 17.6319 22H1.5ZM4 12H1.5C1.22386 12 1 12.2239 1 12.5V20.5C1 20.7762 1.22386 21 1.5 21H4L4 12Z" fill="black"/>
</svg>
