<?xml version="1.0" encoding="utf-8"?>
<svg version="1.1" id="Camada_1"
    xmlns="http://www.w3.org/2000/svg"
    xmlns:xlink="http://www.w3.org/1999/xlink" x="0px" y="0px"
	 viewBox="0 0 226 40.6" style="enable-background:new 0 0 226 40.6;" xml:space="preserve">
    <style type="text/css">
	.st0{fill:#00ABF2;}
</style>
    <g>
        <path class="st0" d="M19.7,10.3v3.5H5.3c-1,0-1.8,0.8-1.8,1.8v1.8h12.6V21H3.5v9H0V15.7c0-2.9,2.4-5.3,5.3-5.3H19.7z"/>
        <path class="st0" d="M22.4,30V10.3H26V30H22.4z"/>
        <path class="st0" d="M43.8,15.8v-0.1c0-1-0.8-1.8-1.8-1.8h-8c-1,0-1.8,0.8-1.8,1.8v0.1c0,1,0.8,1.8,1.8,1.8h7.1
		c1.8,0,3.5,0.8,4.6,2c0.1,0.1,0.1,0.2,0.2,0.3c0.9,1.1,1.4,2.4,1.4,3.9c0,3.4-2.8,6.2-6.2,6.2H35c-3.4,0-6.2-2.8-6.2-6.2h3.5
		c0,1.5,1.2,2.7,2.7,2.7h6.2c1.5,0,2.7-1.2,2.7-2.7c0-1.5-1.2-2.7-2.7-2.7h-7.1c-1.4,0-2.7-0.6-3.7-1.5c-0.3-0.3-0.5-0.5-0.7-0.8
		c-0.6-0.8-0.9-1.9-0.9-3v-0.1c0-2.9,2.4-5.3,5.3-5.3h8c2.9,0,5.3,2.4,5.3,5.3v0.1L43.8,15.8z"/>
        <path class="st0" d="M69.8,10.3V30h-3.5v-9H53.7v9h-3.5V10.3h3.5v7.1h12.6v-7.1H69.8z"/>
        <path class="st0" d="M72.6,30V10.3h3.5V30H72.6z"/>
        <path class="st0" d="M98.6,10.4V30l-3.5-2.7l-12.6-9.7V30H79V10.4l3.5,2.7l12.6,9.7V10.3L98.6,10.4z"/>
        <path class="st0" d="M104.9,20.2c0,3.5,2.8,6.3,6.3,6.3h6.3v-3.8h-6.3v-3.5h9.8V30h-9.8c-5.4,0-9.8-4.4-9.8-9.8
		c0-5.4,4.4-9.8,9.8-9.8h9.8v3.5h-9.8C107.8,13.9,104.9,16.7,104.9,20.2z"/>
        <path class="st0" d="M157.2,10.4v3.5h-8.1V30h-3.5V13.9h-8.1v-3.5H157.2z"/>
        <path class="st0" d="M175.9,26.6l1.8,3.5h-3.9l-1.8-3.5l-1.9-3.7l-0.1-0.2c-0.6-1-1.7-1.7-3-1.7h-3.5v9H160V10.4h12.4
		c1.5,0,2.8,0.6,3.7,1.5c1,1,1.5,2.3,1.5,3.7c0,2.1-1.3,4-3.1,4.8c-0.5,0.2-1,0.4-1.5,0.4L175.9,26.6z M172.4,17.5
		c0.3,0,0.5-0.1,0.7-0.2c0.6-0.3,1.1-0.9,1.1-1.6c0-0.6-0.3-1.1-0.5-1.3c-0.2-0.2-0.6-0.5-1.3-0.5h-8.9v3.6L172.4,17.5z"/>
        <path class="st0" d="M180.6,30V10.3h3.5V30H180.6z"/>
        <path class="st0" d="M203.1,11.9c1,1,1.5,2.3,1.5,3.8c0,2.1-1.3,4-3.1,4.8c-0.5,0.2-1,0.4-1.5,0.4c-0.1,0-0.1,0-0.2,0v0h-9.4v9
		h-3.5V10.3h12.4C200.7,10.3,202.1,10.9,203.1,11.9z M200,17.3c0.6-0.3,1.1-0.9,1.1-1.6c0-0.6-0.3-1.1-0.5-1.3
		c-0.2-0.2-0.6-0.5-1.3-0.5h-8.9v3.6h8.9C199.6,17.5,199.8,17.4,200,17.3z"/>
        <path class="st0" d="M222.5,15.8v-0.1c0-1-0.8-1.8-1.8-1.8h-8c-1,0-1.8,0.8-1.8,1.8v0.1c0,1,0.8,1.8,1.8,1.8h7.1
		c1.8,0,3.5,0.8,4.6,2c0.1,0.1,0.1,0.2,0.2,0.3c0.9,1.1,1.4,2.4,1.4,3.9c0,3.4-2.8,6.2-6.2,6.2h-6.2c-3.4,0-6.2-2.8-6.2-6.2h3.5
		c0,1.5,1.2,2.7,2.7,2.7h6.2c1.5,0,2.7-1.2,2.7-2.7c0-1.5-1.2-2.7-2.7-2.7h-7.1c-1.4,0-2.7-0.6-3.7-1.5c-0.3-0.3-0.5-0.5-0.7-0.8
		c-0.6-0.8-0.9-1.9-0.9-3v-0.1c0-2.9,2.4-5.3,5.3-5.3h8c2.9,0,5.3,2.4,5.3,5.3v0.1L222.5,15.8z"/>
    </g>
</svg>
