<svg width="5" height="18" viewBox="0 0 5 18" fill="none" xmlns="http://www.w3.org/2000/svg">
<path d="M2.00534 18C2.40196 18 2.78967 17.8827 3.11945 17.6629C3.44922 17.4432 3.70625 17.1308 3.85803 16.7654C4.00981 16.3999 4.04952 15.9978 3.97215 15.6098C3.89477 15.2219 3.70378 14.8655 3.42333 14.5858C3.14288 14.3061 2.78556 14.1156 2.39656 14.0384C2.00756 13.9613 1.60436 14.0009 1.23793 14.1522C0.871502 14.3036 0.55831 14.56 0.337961 14.8889C0.117611 15.2178 0 15.6044 0 16C0.00158691 16.5299 0.213373 17.0377 0.589104 17.4125C0.964834 17.7872 1.47398 17.9984 2.00534 18Z" fill="#001F2C"/>
<path d="M2.00534 11C2.40196 11 2.78967 10.8827 3.11945 10.6629C3.44922 10.4432 3.70625 10.1308 3.85803 9.76537C4.00981 9.39991 4.04952 8.99778 3.97215 8.60982C3.89477 8.22186 3.70378 7.86549 3.42333 7.58579C3.14288 7.30608 2.78556 7.1156 2.39656 7.03843C2.00756 6.96126 1.60436 7.00087 1.23793 7.15224C0.871502 7.30362 0.55831 7.55996 0.337961 7.88886C0.117611 8.21776 0 8.60444 0 9C0.00158691 9.52995 0.213373 10.0377 0.589104 10.4125C0.964834 10.7872 1.47398 10.9984 2.00534 11Z" fill="#001F2C"/>
<path d="M2.00534 4C2.40196 4 2.78967 3.8827 3.11945 3.66294C3.44922 3.44318 3.70625 3.13082 3.85803 2.76537C4.00981 2.39992 4.04952 1.99778 3.97215 1.60982C3.89477 1.22186 3.70378 0.865492 3.42333 0.585787C3.14288 0.306084 2.78556 0.115601 2.39656 0.0384312C2.00756 -0.0387402 1.60436 0.000865936 1.23793 0.152243C0.871502 0.303617 0.55831 0.559961 0.337961 0.888859C0.117611 1.21776 0 1.60444 0 2C0.00158691 2.52995 0.213373 3.03774 0.589104 3.41247C0.964834 3.7872 1.47398 3.99842 2.00534 4Z" fill="#001F2C"/>
</svg>
