<svg width="21" height="20" viewBox="0 0 21 20" fill="none" xmlns="http://www.w3.org/2000/svg">
<path fill-rule="evenodd" clip-rule="evenodd" d="M12.0553 1H8V0H12.0553V1ZM2 4H0V3H20.2766V4H18V17.7164V17.726L17.9996 17.7355C17.9759 18.3563 17.7074 18.9425 17.2528 19.3659C16.8003 19.7873 16.2001 20.0134 15.5822 19.9954H4.41776C3.79992 20.0134 3.1997 19.7873 2.74721 19.3659C2.29259 18.9425 2.02408 18.3563 2.00036 17.7355L2 17.726V17.7164V4ZM3 4V17.7061C3.01581 18.0596 3.16969 18.3928 3.42875 18.6341C3.68996 18.8774 4.03686 19.0074 4.39362 18.9956L4.40184 18.9954H4.41006H15.5899H15.5982L15.6064 18.9956C15.9631 19.0074 16.31 18.8774 16.5712 18.6341C16.8303 18.3928 16.9842 18.0596 17 17.7061V4H3ZM7 15L7 7H8V15H7ZM12 7V15H13V7H12Z" fill="#001F2C"/>
</svg>
