<svg width="22" height="22" viewBox="0 0 22 22" fill="none" xmlns="http://www.w3.org/2000/svg">
<path fill-rule="evenodd" clip-rule="evenodd" d="M0 8.5C0 13.1935 3.79797 17 8.48499 17C10.6086 17 12.5497 16.2186 14.0378 14.9273L20.6883 21.5903L21.3961 20.8839L14.7534 14.2288C16.1303 12.7176 16.97 10.7069 16.97 8.5C16.97 3.80647 13.172 0 8.48499 0C3.79797 0 0 3.80647 0 8.5ZM8.48499 16C4.35203 16 1 12.643 1 8.5C1 4.35698 4.35203 1 8.48499 1C12.6179 1 15.97 4.35698 15.97 8.5C15.97 12.643 12.6179 16 8.48499 16Z" fill="#001F2C"/>
</svg>
