<svg width="14" height="11" viewBox="0 0 14 11" fill="none" xmlns="http://www.w3.org/2000/svg">
<path fill-rule="evenodd" clip-rule="evenodd" d="M1.16667 0C0.522334 0 0 0.492487 0 1.1V1.78736C1.23628 2.30195 2.83327 2.94619 4.22538 3.50286C5.08388 3.84615 5.86198 4.15514 6.42547 4.37832C6.65598 4.46962 6.85055 4.54654 6.99997 4.60556C7.14939 4.54654 7.34396 4.46962 7.57447 4.37832C8.13796 4.15514 8.91606 3.84615 9.77456 3.50286C11.1667 2.94618 12.7637 2.30193 14 1.78734V1.1C14 0.492487 13.4777 0 12.8333 0H1.16667ZM14 3.58906C12.8838 4.04805 11.5978 4.56606 10.4578 5.02189C9.59704 5.3661 8.81702 5.67586 8.25222 5.89955C7.9698 6.01141 7.74114 6.10177 7.58304 6.16418L7.3382 6.26075L6.99997 6.39391L6.66273 6.26113L6.4169 6.16418C6.2588 6.10177 6.03014 6.01141 5.74772 5.89955C5.18292 5.67586 4.4029 5.3661 3.5421 5.02189C2.40217 4.56606 1.11619 4.04807 0 3.58909V9.9C0 10.5075 0.522334 11 1.16667 11H12.8333C13.4777 11 14 10.5075 14 9.9V3.58906Z" fill="#CBD1D4"/>
</svg>
