<svg width="21" height="21" viewBox="0 0 21 21" fill="none" xmlns="http://www.w3.org/2000/svg">
<path fill-rule="evenodd" clip-rule="evenodd" d="M5.15456 0.694275C5.68816 0.617903 6.18603 0.979387 6.27971 1.5112L7.29956 7.30125L3.82036 10.787C4.61637 12.2399 5.54093 13.4426 6.5288 14.4392C7.6609 15.5813 8.89969 16.4762 10.1446 17.1774L13.6509 13.6645L19.4301 14.6863C19.9609 14.7801 20.3217 15.279 20.2455 15.8136L19.6697 19.852C19.6002 20.3389 19.18 20.7268 18.6532 20.6952C16.941 20.5925 10.5336 19.8999 5.81991 15.1445C3.15168 12.4527 0.975339 8.40778 0.315053 2.35819C0.256378 1.8206 0.637083 1.34084 1.16407 1.26542L5.15456 0.694275ZM11.0713 17.6646C14.3684 19.2797 17.5329 19.6227 18.6829 19.6942L19.2565 15.672L13.9895 14.7408L11.0713 17.6646ZM3.34231 9.8504L6.22531 6.96198L5.29585 1.68515L1.30889 2.25579C1.64209 5.30272 2.36935 7.80082 3.34231 9.8504Z" fill="#001F2C"/>
</svg>
