<svg width="23" height="19" viewBox="0 0 23 19" fill="none" xmlns="http://www.w3.org/2000/svg">
<path fill-rule="evenodd" clip-rule="evenodd" d="M3.11614 6.62993C4.82955 5.07316 7.44412 3.5 10.9996 3.5C14.5551 3.5 17.1696 5.07316 18.8831 6.62993C19.7394 7.40799 20.3751 8.18546 20.7974 8.76946C21.0089 9.06179 21.1676 9.3066 21.2743 9.48011C21.3277 9.56689 21.3682 9.63592 21.3959 9.68424C21.4097 9.70841 21.4203 9.7274 21.4278 9.74086L21.4365 9.75685L21.4391 9.76165L21.44 9.76323L21.4403 9.76381C21.4404 9.76405 21.4405 9.76426 20.9996 9.99998C21.4405 10.2358 21.4404 10.236 21.4403 10.2362L21.44 10.2368L21.4391 10.2384L21.4365 10.2432L21.4277 10.2592C21.4203 10.2726 21.4097 10.2916 21.3958 10.3158C21.3682 10.3641 21.3277 10.4331 21.2742 10.5199C21.1674 10.6934 21.0087 10.9382 20.7972 11.2305C20.3748 11.8145 19.739 12.592 18.8826 13.3701C17.169 14.9268 14.5545 16.5 10.9996 16.5C7.44473 16.5 4.83017 14.9268 3.11664 13.3701C2.26022 12.592 1.62444 11.8145 1.20196 11.2305C0.990484 10.9382 0.831763 10.6934 0.724953 10.5199C0.67153 10.4331 0.631037 10.3641 0.603372 10.3158C0.589538 10.2916 0.578907 10.2726 0.571465 10.2592L0.562691 10.2432L0.560093 10.2384L0.559242 10.2368L0.558927 10.2362C0.558801 10.236 0.558688 10.2358 0.999599 9.99998C0.558649 9.76426 0.558763 9.76405 0.558889 9.76381L0.559204 9.76323L0.560055 9.76165L0.562652 9.75685L0.571423 9.74086C0.578863 9.7274 0.589491 9.70841 0.603321 9.68424C0.630977 9.63592 0.671457 9.56689 0.724865 9.48011C0.831643 9.3066 0.990321 9.06179 1.20175 8.76946C1.62413 8.18546 2.25979 7.40799 3.11614 6.62993ZM0.999599 9.99998L0.558688 10.2358L0.432617 10L0.558649 9.76426L0.999599 9.99998ZM20.9996 9.99998L21.4405 9.76426L21.5666 10L21.4405 10.2358L20.9996 9.99998ZM1.57915 9.99994C1.67437 10.1544 1.81852 10.3767 2.01218 10.6444C2.40356 11.1854 2.9944 11.908 3.78907 12.6299C5.3777 14.0732 7.76314 15.5 10.9996 15.5C14.2361 15.5 16.6215 14.0732 18.2101 12.6299C19.0048 11.908 19.5956 11.1854 19.987 10.6444C20.1807 10.3767 20.3248 10.1544 20.42 9.99994C20.3249 9.84547 20.1808 9.62318 19.9872 9.3555C19.5959 8.81451 19.0052 8.09199 18.2106 7.37006C16.6221 5.92683 14.2367 4.5 10.9996 4.5C7.76249 4.5 5.37705 5.92683 3.78861 7.37006C2.99403 8.09199 2.40331 8.81451 2.01203 9.3555C1.81843 9.62318 1.67434 9.84548 1.57915 9.99994ZM11.1112 14C13.3162 14 15.1037 12.2091 15.1037 10C15.1037 7.79086 13.3162 6 11.1112 6C8.90624 6 7.11874 7.79086 7.11874 10C7.11874 12.2091 8.90624 14 11.1112 14Z" fill="black"/>
<path fill-rule="evenodd" clip-rule="evenodd" d="M21.9999 19L-5.90682e-05 1L0.633179 0.226044L22.6332 18.226L21.9999 19Z" fill="black"/>
</svg>
