<svg width="22" height="18" viewBox="0 0 22 18" fill="none" xmlns="http://www.w3.org/2000/svg">
<path fill-rule="evenodd" clip-rule="evenodd" d="M3.5 0H19.5L21.5 2H1.5L3.5 0ZM17.5999 8.0001C15.6999 8.0001 15.5999 5.9001 15.5999 5.9001C15.4999 5.0001 15.2999 6.4001 15.2999 6.4001C15.2999 6.4001 15.0999 8.1001 12.8999 8.1001C12.1794 8.1001 11.5662 8.12155 11.0427 8.13986H11.0426L11.0426 8.13986C9.9675 8.17747 9.27063 8.20185 8.79988 8.0001C8.19988 7.8001 7.69988 7.1001 7.59988 5.9001C7.59988 5.9001 7.59988 5.7001 7.49988 5.7001C7.49988 5.7001 7.39988 5.8001 7.39988 5.9001C7.19988 7.9001 5.69988 8.1001 5.69988 8.1001C4.59988 8.3001 3.69988 8.3001 3.09988 8.2001C2.09988 8.0001 1.29988 7.5001 1.09988 6.5001C0.799876 5.0001 0.999876 3.1001 0.999876 3.1001H21.8999V6.2001C21.7999 7.7001 20.2999 8.0001 20.2999 8.0001H17.5999ZM15.5 8C16.1 8.6 16.8 9 17.7 9H20C20.2 9 20.3 9 20.5 8.9V17C20.5 17.6 20.1 18 19.5 18H15.5V12C15.5 11.4 15.1 11 14.5 11H8.5C7.9 11 7.5 11.4 7.5 12V18H3.5C2.9 18 2.5 17.6 2.5 17V8.9C2.7 9 2.8 9 3 9H5.3C6.2 9 6.9 8.6 7.5 8C8.1 8.6 8.8 9 9.7 9H13.3C14.2 9 14.9 8.6 15.5 8ZM14.5 12H8.5V18H14.5V12Z" fill="#0095DF"/>
</svg>
