<svg width="22" height="14" viewBox="0 0 22 14" fill="none" xmlns="http://www.w3.org/2000/svg">
<path fill-rule="evenodd" clip-rule="evenodd" d="M3.11614 3.62993C4.82955 2.07316 7.44412 0.5 10.9996 0.5C14.5551 0.5 17.1696 2.07316 18.8831 3.62993C19.7394 4.40799 20.3751 5.18546 20.7974 5.76946C21.0089 6.06179 21.1676 6.3066 21.2743 6.48011C21.3277 6.56689 21.3682 6.63592 21.3959 6.68424C21.4097 6.70841 21.4203 6.7274 21.4278 6.74086L21.4365 6.75685L21.4391 6.76165L21.44 6.76323L21.4403 6.76381C21.4404 6.76405 21.4405 6.76426 20.9996 6.99998C21.4405 7.23577 21.4404 7.23598 21.4403 7.23622L21.44 7.2368L21.4391 7.23839L21.4365 7.24318L21.4277 7.25917C21.4203 7.27263 21.4097 7.29162 21.3958 7.31579C21.3682 7.36411 21.3277 7.43314 21.2742 7.51992C21.1674 7.69342 21.0087 7.93822 20.7972 8.23055C20.3748 8.81454 19.739 9.59202 18.8826 10.3701C17.169 11.9268 14.5545 13.5 10.9996 13.5C7.44473 13.5 4.83017 11.9268 3.11664 10.3701C2.26022 9.59202 1.62444 8.81454 1.20196 8.23055C0.990484 7.93822 0.831763 7.69342 0.724953 7.51992C0.67153 7.43314 0.631037 7.36411 0.603372 7.31579C0.589538 7.29162 0.578907 7.27263 0.571465 7.25917L0.562691 7.24318L0.560093 7.23839L0.559242 7.2368L0.558927 7.23622C0.558801 7.23598 0.558688 7.23577 0.999599 6.99998C0.558649 6.76426 0.558763 6.76405 0.558889 6.76381L0.559204 6.76323L0.560055 6.76165L0.562652 6.75685L0.571423 6.74086C0.578863 6.7274 0.589491 6.70841 0.603321 6.68424C0.630977 6.63592 0.671457 6.56689 0.724865 6.48011C0.831643 6.3066 0.990321 6.06179 1.20175 5.76946C1.62413 5.18546 2.25979 4.40799 3.11614 3.62993ZM0.999599 6.99998L0.558688 7.23577L0.432617 7.00003L0.558649 6.76426L0.999599 6.99998ZM20.9996 6.99998L21.4405 6.76426L21.5666 7.00003L21.4405 7.23577L20.9996 6.99998ZM1.57915 6.99994C1.67437 7.15441 1.81852 7.37672 2.01218 7.64442C2.40356 8.18543 2.9944 8.90796 3.78907 9.62991C5.3777 11.0732 7.76314 12.5 10.9996 12.5C14.2361 12.5 16.6215 11.0732 18.2101 9.62991C19.0048 8.90796 19.5956 8.18543 19.987 7.64442C20.1807 7.37672 20.3248 7.1544 20.42 6.99994C20.3249 6.84547 20.1808 6.62318 19.9872 6.3555C19.5959 5.81451 19.0052 5.09199 18.2106 4.37006C16.6221 2.92683 14.2367 1.5 10.9996 1.5C7.76249 1.5 5.37705 2.92683 3.78861 4.37006C2.99403 5.09199 2.40331 5.81451 2.01203 6.3555C1.81843 6.62318 1.67434 6.84548 1.57915 6.99994ZM11.1112 11C13.3162 11 15.1037 9.20914 15.1037 7C15.1037 4.79086 13.3162 3 11.1112 3C8.90624 3 7.11874 4.79086 7.11874 7C7.11874 9.20914 8.90624 11 11.1112 11Z" fill="black"/>
</svg>
