<svg width="21" height="20" viewBox="0 0 21 20" fill="none" xmlns="http://www.w3.org/2000/svg">
<path fill-rule="evenodd" clip-rule="evenodd" d="M2.52127 0.843994L12.4527 10.7754C14.4173 9.1516 17.3318 9.25911 19.1706 11.0979C21.1236 13.0509 21.1236 16.2174 19.1706 18.1704C17.2176 20.1234 14.0512 20.1234 12.0982 18.1704C10.2696 16.3418 10.1531 13.4496 11.7486 11.4855L8.06442 7.80135L5.64108 10.2247L5.28752 10.5783L4.93397 10.2247L1.1016 6.39233L0.748047 6.03878L1.1016 5.68522L3.52495 3.26188L1.81417 1.5511L2.52127 0.843994ZM4.23205 3.96899L2.16226 6.03878L5.28752 9.16404L7.35732 7.09425L4.23205 3.96899ZM12.8053 11.805C11.2428 13.3675 11.2428 15.9008 12.8053 17.4633C14.3677 19.0258 16.901 19.0258 18.4635 17.4633C20.026 15.9008 20.026 13.3675 18.4635 11.805C16.901 10.2426 14.3677 10.2426 12.8053 11.805Z" fill="#001F2C"/>
</svg>
