<svg width="14" height="14" viewBox="0 0 14 14" fill="none" xmlns="http://www.w3.org/2000/svg">
<path d="M0.389606 9.3029C0.13754 8.58136 0 7.8065 0 7C0 6.1935 0.13754 5.41864 0.389606 4.6971C0.395761 4.67543 0.403052 4.65429 0.411883 4.63395C1.38416 1.93503 3.97018 0 7 0C10.0298 0 12.6159 1.93503 13.5881 4.63395C13.5969 4.65436 13.6043 4.67543 13.6104 4.6971C13.8625 5.41864 14 6.1935 14 7C14 7.8065 13.8625 8.58136 13.6104 9.3029C13.6042 9.32457 13.5969 9.34571 13.5881 9.36604C12.6158 12.065 10.0298 14 7 14C3.97018 14 1.38416 12.065 0.411883 9.36604C0.403052 9.34571 0.395761 9.32464 0.389606 9.3029ZM7 12.9966C7.26658 12.9966 7.69639 12.5142 8.05563 11.4363C8.22903 10.9162 8.36784 10.3183 8.46898 9.66788H5.53102C5.63216 10.3183 5.77098 10.9162 5.9443 11.4363C6.30361 12.5142 6.73342 12.9966 7 12.9966ZM8.59074 8.66444C8.63897 8.12941 8.66446 7.57122 8.66446 7C8.66446 6.42877 8.63897 5.87059 8.59074 5.33556H5.40933C5.3611 5.87059 5.33561 6.42877 5.33561 7C5.33561 7.57122 5.3611 8.12941 5.40933 8.66444H8.59074ZM12.9966 7.00007C12.9966 6.42275 12.9144 5.86431 12.7614 5.33563H9.5972C9.64409 5.8817 9.66791 6.44135 9.66791 7.00007C9.66791 7.55878 9.64416 8.11843 9.5972 8.66451H12.7614C12.9144 8.13576 12.9966 7.57738 12.9966 7.00007ZM7 1.00344C6.73342 1.00344 6.30354 1.48589 5.9443 2.56372C5.77098 3.08384 5.6321 3.68176 5.53102 4.33212H8.46905C8.3679 3.68169 8.22909 3.08384 8.0557 2.56372C7.69639 1.48589 7.26658 1.00344 7 1.00344ZM4.40287 5.33563H1.23866C1.08567 5.86431 1.00345 6.42275 1.00345 7.00007C1.00345 7.57738 1.08567 8.13583 1.23866 8.66451H4.40287C4.35598 8.11843 4.33216 7.55878 4.33216 7.00007C4.33216 6.44135 4.35598 5.8817 4.40287 5.33563ZM1.63074 4.33219H4.518C4.69648 3.1015 5.00267 1.99738 5.43221 1.21189C3.76682 1.66337 2.38707 2.81606 1.63074 4.33219ZM8.56786 1.21182C8.9974 1.99731 9.30359 3.10143 9.48207 4.33219H12.3693C11.6129 2.81606 10.2332 1.66337 8.56786 1.21182ZM12.3693 9.66788H9.48207C9.30359 10.8986 8.9974 12.0027 8.56786 12.7882C10.2332 12.3367 11.6129 11.1841 12.3693 9.66788ZM5.43221 12.7882C5.00267 12.0028 4.69648 10.8986 4.518 9.66788H1.63074C2.38707 11.1841 3.76682 12.3367 5.43221 12.7882Z" fill="#CBD1D4"/>
</svg>
