<svg width="20" height="19" viewBox="0 0 20 19" fill="none" xmlns="http://www.w3.org/2000/svg">
<path fill-rule="evenodd" clip-rule="evenodd" d="M14.1935 3.51431L14.4932 3.92308H15H19V18H1V3.92308H5H5.54195L5.83782 3.46902L7.44671 1L12.3503 1L14.1935 3.51431ZM1 2.92308H5L6.60889 0.454053C6.79346 0.170812 7.10864 0 7.44671 0H12.3503C12.6689 0 12.9684 0.151816 13.1568 0.408768L15 2.92308H19C19.5523 2.92308 20 3.37079 20 3.92308V18C20 18.5523 19.5523 19 19 19H1C0.447716 19 0 18.5523 0 18V3.92308C0 3.37079 0.447715 2.92308 1 2.92308ZM14 11C14 13.2091 12.2091 15 10 15C7.79086 15 6 13.2091 6 11C6 8.79086 7.79086 7 10 7C12.2091 7 14 8.79086 14 11ZM15 11C15 13.7614 12.7614 16 10 16C7.23858 16 5 13.7614 5 11C5 8.23858 7.23858 6 10 6C12.7614 6 15 8.23858 15 11Z" fill="#001F2C"/>
</svg>
