<svg width="23" height="18" viewBox="0 0 23 18" fill="none" xmlns="http://www.w3.org/2000/svg">
<path fill-rule="evenodd" clip-rule="evenodd" d="M3.5 0H3.32461L3.18765 0.109566L0.687652 2.10957L0.5 2.25969V2.5V6C0.5 7.20948 1.35888 8.21836 2.5 8.44999V17C2.5 17.5523 2.94772 18 3.5 18H7.5H8.5H14.5H15.5H19.5C20.0523 18 20.5 17.5523 20.5 17V8.44999C21.6411 8.21836 22.5 7.20948 22.5 6V2.5V2.25969L22.3123 2.10957L19.8123 0.109566L19.6754 0H19.5H3.5ZM19.5 8.5H17.6943C16.7588 8.5 15.9282 7.98228 15.5 7.19873C15.0718 7.98228 14.2412 8.5 13.3057 8.5H9.69425C8.75875 8.5 7.92822 7.98228 7.5 7.19873C7.07179 7.98228 6.24125 8.5 5.30575 8.5H3.5V17H7.5V12C7.5 11.4477 7.94772 11 8.5 11H14.5C15.0523 11 15.5 11.4477 15.5 12V17H19.5V8.5ZM2.42539 2L3.67539 1H19.3246L20.5746 2H2.42539ZM1.5 3V6C1.5 6.82843 2.17157 7.5 3 7.5H5.30575C6.039 7.5 6.66479 6.96988 6.78534 6.2466L7.0068 4.9178H7.9932L8.21466 6.2466C8.33521 6.96988 8.96099 7.5 9.69425 7.5H13.3057C14.039 7.5 14.6648 6.96988 14.7853 6.2466L15.0068 4.9178H15.9932L16.2147 6.2466C16.3352 6.96988 16.961 7.5 17.6943 7.5H20C20.8284 7.5 21.5 6.82843 21.5 6V3H1.5ZM8.5 17H14.5V12H8.5V17Z" fill="#828C90"/>
</svg>
