<svg width="14" height="10" viewBox="0 0 14 10" fill="none" xmlns="http://www.w3.org/2000/svg">
<path d="M3.29974 10C2.50306 10 1.83158 9.71831 1.28529 9.15493C0.761764 8.56808 0.5 7.75822 0.5 6.72535C0.5 5.38732 0.875575 4.11972 1.62672 2.92254C2.37787 1.72535 3.31112 0.751174 4.42646 0L6.03119 1.16197C5.64423 1.51408 5.21175 2.03052 4.73375 2.71127C4.27851 3.39202 3.99398 4.02582 3.88017 4.61268C4.49475 4.75352 4.99551 5.05868 5.38247 5.52817C5.79219 5.97418 5.99705 6.53756 5.99705 7.21831C5.99705 8.03991 5.73528 8.70892 5.21175 9.22535C4.68822 9.74178 4.05089 10 3.29974 10ZM10.7685 10C9.97188 10 9.30039 9.71831 8.7541 9.15493C8.23057 8.56808 7.96881 7.75822 7.96881 6.72535C7.96881 5.4108 8.34439 4.14319 9.09554 2.92254C9.84668 1.70188 10.7799 0.727699 11.8953 0L13.5 1.16197C13.113 1.51408 12.6919 2.03052 12.2367 2.71127C11.7815 3.36854 11.4856 4.00235 11.349 4.61268C11.9636 4.75352 12.4643 5.05868 12.8513 5.52817C13.261 5.97418 13.4659 6.53756 13.4659 7.21831C13.4659 8.03991 13.2041 8.70892 12.6806 9.22535C12.157 9.74178 11.5197 10 10.7685 10Z" fill="#CBD1D4"/>
</svg>
